<?xml version="1.0" standalone="no"?>
<svg viewBox="0 0 200 200" xmlns="http://www.w3.org/2000/svg">
  <path fill="#DEEBF8" d="M29.2,-57.3C37.5,-45.7,43.7,-37.2,51.7,-28.2C59.8,-19.2,69.7,-9.6,71.8,1.2C73.8,11.9,67.9,23.9,60.6,34.1C53.2,44.3,44.3,52.8,33.9,62.7C23.6,72.6,11.8,83.9,-0.1,84.1C-12,84.2,-24,73.2,-32.1,62.1C-40.2,50.9,-44.5,39.5,-54.2,29.1C-63.9,18.8,-79,9.4,-81.3,-1.3C-83.5,-12,-73,-24.1,-64.4,-36.2C-55.7,-48.4,-48.9,-60.6,-38.5,-71C-28.1,-81.3,-14,-89.7,-1.8,-86.5C10.4,-83.4,20.9,-68.8,29.2,-57.3Z" transform="translate(100 100)" />
</svg>
